<svg width="65" height="100" viewBox="0 0 65 100" fill="none" xmlns="http://www.w3.org/2000/svg">
<path d="M12.1578 0H5.40148C2.42355 0 0 2.42216 0 5.4001V44.405C0 47.3815 2.42355 49.8037 5.40148 49.8037H8.25775C8.75822 47.8986 10.2513 46.4068 12.1564 45.9077L12.1578 0Z" fill="black"/>
<path d="M16.2538 51.1903C16.2538 49.6931 15.0358 48.4737 13.5386 48.4737C12.0455 48.4737 10.8302 49.6862 10.8247 51.1779C10.8247 51.1807 10.8261 51.1834 10.8261 51.1862C10.8261 51.1903 10.8247 51.1931 10.8247 51.1972C10.8275 52.6917 12.0427 53.907 13.5386 53.907C15.0358 53.907 16.2538 52.6876 16.2538 51.1903Z" fill="black"/>
<path d="M52.5088 39.3201H27.1245V49.8037H52.5088V39.3201ZM33.2587 44.0386C32.4956 44.0386 31.8776 43.4192 31.8776 42.6561C31.8776 41.8929 32.4956 41.2736 33.2587 41.2736C34.0233 41.2736 34.6412 41.8929 34.6412 42.6561C34.6412 43.4192 34.0233 44.0386 33.2587 44.0386ZM36.538 47.8599C35.7749 47.8599 35.1555 47.2405 35.1555 46.4773C35.1555 45.7128 35.7749 45.0948 36.538 45.0948C37.3012 45.0948 37.9206 45.7142 37.9206 46.4773C37.9206 47.2405 37.3012 47.8599 36.538 47.8599ZM39.8174 44.0386C39.0542 44.0386 38.4349 43.4192 38.4349 42.6561C38.4349 41.8929 39.0542 41.2736 39.8174 41.2736C40.5805 41.2736 41.1999 41.8929 41.1999 42.6561C41.1999 43.4192 40.5791 44.0386 39.8174 44.0386ZM43.0939 47.8599C42.3294 47.8599 41.7114 47.2405 41.7114 46.4773C41.7114 45.7128 42.3294 45.0948 43.0939 45.0948C43.8585 45.0948 44.4764 45.7142 44.4764 46.4773C44.4764 47.2405 43.8571 47.8599 43.0939 47.8599ZM46.3719 44.0386C45.6073 44.0386 44.9893 43.4192 44.9893 42.6561C44.9893 41.8929 45.6073 41.2736 46.3719 41.2736C47.1364 41.2736 47.7544 41.8929 47.7544 42.6561C47.7544 43.4192 47.1364 44.0386 46.3719 44.0386Z" fill="black"/>
<path d="M14.916 94.5985C14.916 97.5765 17.3396 100 20.3175 100H59.3196C62.2975 100 64.7211 97.5765 64.7211 94.5985V89.8634H14.916V94.5985Z" fill="black"/>
<path d="M53.9126 52.5686C53.9057 52.5686 53.8987 52.5727 53.8918 52.5727H25.7425C25.7356 52.5727 25.73 52.5686 25.7217 52.5686H18.8216C18.3225 54.4792 16.8266 55.9751 14.916 56.4742V81.5032H64.7211V52.5686H53.9126Z" fill="black"/>
<path d="M64.7197 84.2684H14.916V87.0984H64.7197V84.2684Z" fill="black"/>
<path d="M39.9259 21.9474C39.5097 22.5405 39.0936 23.3603 39.0397 24.3225C38.983 25.2834 39.2996 26.2664 39.9742 27.2604C41.4079 25.3373 41.3913 23.8815 39.9259 21.9474Z" fill="black"/>
<path d="M39.7999 35.5431L40.1608 35.7048L40.4829 35.4767C43.0751 33.649 51.4407 27.0517 50.2407 18.9584L50.0775 17.8483L49.1596 18.4939C47.683 19.535 46.2715 19.7257 45.1282 19.087C44.8254 18.917 44.694 18.5451 44.8226 18.2243C46.5978 13.7934 46.3461 6.69141 39.7889 1.25951L38.5529 0.23645L38.6566 1.8374C39.164 9.63063 38.2999 14.569 36.0865 16.5155C35.9593 16.6261 35.7851 16.6787 35.5542 16.6828C35.3607 16.6607 35.1851 16.5584 35.0704 16.3994L32.7588 13.2113L32.2998 14.3948C30.3574 19.4009 30.168 23.8429 31.7371 27.5964C33.7376 32.3868 38.0414 34.7495 39.7999 35.5431ZM36.9699 24.1691C37.1552 21.2631 39.428 19.3953 39.5234 19.3193C39.681 19.1921 39.8469 19.1658 39.9575 19.1658C40.1511 19.1658 40.3294 19.2432 40.4594 19.3843C43.953 23.1143 43.953 26.1558 40.4608 29.8831C40.2036 30.1554 39.7239 30.1637 39.4585 29.8914C37.6861 28.0499 36.8469 26.124 36.9699 24.1691Z" fill="black"/>
</svg>
