<svg width="81" height="101" viewBox="0 0 81 101" fill="none" xmlns="http://www.w3.org/2000/svg">
<path d="M53.8202 38.9552C54.5529 39.7971 55.1809 40.7442 55.5996 41.7966L56.0183 42.9542L64.1825 34.7458C65.8572 33.062 65.8572 30.4312 64.1825 28.7474C62.5078 27.0636 59.8911 27.0636 58.2164 28.7474L50.9941 36.0086L53.8202 38.9552Z" fill="black"/>
<path d="M43.2479 27.9055C43.3525 28.0107 43.4572 28.116 43.5619 28.2212L48.1673 33.062L53.8195 27.3793C55.4942 25.6956 55.4942 23.0647 53.8195 21.3809C52.1448 19.6971 49.5281 19.6971 47.8533 21.3809L42.2012 27.0636L42.7245 27.5898C42.9339 27.695 43.0385 27.8003 43.2479 27.9055Z" fill="black"/>
<path d="M56.2272 48.6369C54.5525 50.3207 54.5525 52.9516 56.2272 54.6353C57.9019 56.3191 60.5187 56.3191 62.1934 54.6353L71.6137 45.1641C73.2884 43.4804 73.2884 40.8495 71.6137 39.1657C69.939 37.482 67.3222 37.482 65.6475 39.1657L56.2272 48.6369Z" fill="black"/>
<path d="M61.0421 60.5285L60.9374 59.7918L60.2048 59.8971C57.588 60.2128 55.0759 59.3709 53.2966 57.5819C52.1452 56.4243 51.4125 54.951 50.9938 53.2672L50.7845 52.4253L50.0518 52.6358C49.1098 52.8463 48.3771 52.9515 47.6444 52.9515C45.7603 52.8463 44.0856 52.3201 42.7249 51.1625L41.4689 50.1102V51.6887C41.3642 58.6342 37.7008 64.1065 34.5607 66.6321C33.7233 67.2635 32.572 67.2635 31.7346 66.5269L31.5253 66.4217C30.7926 65.4745 31.0019 64.2117 31.8393 63.4751C31.9439 63.3698 40.2128 56.5295 36.1307 45.2693L35.8167 44.3222L32.3626 46.9531C31.4206 47.5845 30.1646 47.374 29.4319 46.5322C28.6992 45.585 28.9085 44.3222 29.8506 43.5856L35.084 39.6919C35.9214 39.0604 37.0728 39.1657 37.8054 39.9023L44.7136 47.4793C45.551 48.3212 46.5977 48.7421 47.6444 48.7421C48.7958 48.7421 49.8425 48.3212 50.6798 47.5845C52.2499 46.006 52.2499 43.3751 50.7845 41.7966L40.5269 31.0625C37.7008 28.2212 33.3046 27.9055 30.1646 30.3259L20.3256 37.9029C16.2435 41.1652 13.6267 45.9007 13.3127 51.1625L12.266 68.7368C12.266 69.263 12.0567 69.684 11.638 70.1049L1.79907 79.997C0.647705 81.1546 0.647705 83.1541 1.79907 84.4169L17.2902 99.9918C18.5462 101.149 20.4303 101.149 21.6863 99.9918L31.9439 89.6787C32.4673 89.1525 33.2 88.9421 33.828 89.1525L36.8634 89.8892C42.3062 91.152 47.9584 89.5735 51.9359 85.6797C58.0067 79.6813 63.0308 73.8934 66.9036 68.4211L67.5316 67.5793L66.5896 67.2635C63.5542 66.106 61.5655 63.5803 61.0421 60.5285Z" fill="black"/>
<path d="M79.1499 49.3735C77.4752 47.6898 74.8585 47.6898 73.1838 49.3735L66.2756 56.3191C64.6009 58.0029 64.6009 60.6337 66.2756 62.3175C67.9503 64.0013 70.567 64.0013 72.2417 62.3175L79.1499 55.372C80.72 53.6882 80.72 50.9521 79.1499 49.3735Z" fill="black"/>
<path d="M50.2615 14.9615C51.9362 14.9615 53.2969 13.5935 53.2969 11.9097V3.91181C53.2969 2.22805 51.9362 0.859985 50.2615 0.859985C48.5868 0.859985 47.2261 2.22805 47.2261 3.91181V11.9097C47.2261 13.5935 48.5868 14.9615 50.2615 14.9615Z" fill="black"/>
<path d="M35.8169 14.9616C36.2356 16.2244 37.3869 16.961 38.643 16.961C38.957 16.961 39.3756 16.8558 39.6897 16.7506C41.2597 16.2244 42.0971 14.4354 41.469 12.8569L38.7476 5.38514C38.2243 3.80661 36.4449 2.96473 34.8749 3.59614C33.3048 4.12232 32.4674 5.91132 33.0955 7.48985L35.8169 14.9616Z" fill="black"/>
<path d="M60.8333 16.7505C61.1474 16.8558 61.566 16.961 61.88 16.961C63.1361 16.961 64.2874 16.2243 64.7061 14.9615L67.4275 7.48981C67.9509 5.91127 67.2182 4.12227 65.6482 3.59609C64.0781 3.06992 62.2987 3.80656 61.7754 5.3851L59.054 12.8568C58.4259 14.4353 59.2633 16.2244 60.8333 16.7505Z" fill="black"/>
</svg>
