<svg width="100" height="100" viewBox="0 0 100 100" fill="none" xmlns="http://www.w3.org/2000/svg">
<path fill-rule="evenodd" clip-rule="evenodd" d="M40.4762 0C25.5762 0 12.5571 8.07381 5.52857 20.0762C5.47143 20.1571 5.42619 20.2476 5.38095 20.3357C1.96429 26.2714 0 33.1429 0 40.4762C0 47.8286 1.97381 54.7214 5.40714 60.6667C5.44524 60.7357 5.48095 60.8071 5.52381 60.8714C12.55 72.8786 25.5738 80.9571 40.4762 80.9571C40.6405 80.9571 40.8 80.9381 40.9548 80.9048C41.5738 80.7786 42.1095 80.4119 42.4524 79.9071V79.9024C42.5381 79.7762 42.6119 79.6429 42.6714 79.5024V79.4976C42.731 79.3548 42.7786 79.2048 42.8095 79.05C42.8429 78.8952 42.8571 78.7357 42.8571 78.5714V61.9048H52.381C53.6952 61.9048 54.7619 60.8381 54.7619 59.5238C54.7619 58.2095 53.6952 57.1429 52.381 57.1429H42.8571V42.8571H54.5286C54.2762 44.469 53.7548 46.6929 52.631 48.9357C52.0452 50.1095 52.5214 51.5452 53.6976 52.131C54.8714 52.719 56.3048 52.2405 56.8929 51.0643C58.4405 47.9643 59.0667 44.8952 59.3286 42.8571H75.9905C75.9452 43.3048 75.9095 43.75 75.8381 44.2095C75.5857 45.8048 75.1905 47.4452 74.3357 48.5071C73.5119 49.531 73.6738 51.0333 74.6976 51.8548C75.7214 52.681 77.2214 52.5214 78.0452 51.4976C79.3619 49.8619 80.1524 47.4071 80.5381 44.9548C80.7857 43.3952 80.8786 41.8667 80.9048 40.6214C80.9095 40.5714 80.919 40.5262 80.919 40.4762C80.919 40.4548 80.9167 40.4357 80.9143 40.4167C80.9381 39.1381 80.8881 38.2071 80.8738 37.95C80.4833 31.631 78.631 25.7119 75.6643 20.5024C75.6262 20.4119 75.5714 20.3286 75.5214 20.2429C75.4929 20.1952 75.469 20.1452 75.4429 20.0976C75.4405 20.0952 75.4381 20.0929 75.4381 20.0905C68.4119 8.08095 55.381 0 40.4762 0ZM38.0952 5.30714V19.0476H29.1857C30.1571 15.9524 31.3357 13.2143 32.6833 10.9571C34.3024 8.24524 36.0952 6.22143 38.0952 5.30714ZM42.8571 5.30714C44.8571 6.22143 46.65 8.24524 48.269 10.9571C49.6167 13.2143 50.7952 15.9524 51.7667 19.0476H42.8571V5.30714ZM50.8929 6.30952C58.2143 8.54286 64.5381 13.069 69.0333 19.0476H56.7143C55.55 14.9619 54.0714 11.3857 52.3571 8.51429C51.8881 7.72619 51.4 6.99524 50.8929 6.30952ZM30.0595 6.31429C29.5548 7 29.0643 7.72857 28.5952 8.51429C26.881 11.3857 25.4024 14.9619 24.2381 19.0476H11.9143C16.4095 13.069 22.7381 8.54762 30.0595 6.31429ZM8.89524 23.8095H23.069C22.1643 28.1976 21.6 33.0143 21.4667 38.0952H4.85C5.19048 32.9619 6.6119 28.1262 8.89524 23.8095ZM27.9167 23.8095H38.0952V38.0952H26.2238C26.3643 32.9762 26.9548 28.1429 27.9167 23.8095ZM42.8571 23.8095H53.0357C53.9976 28.1429 54.5881 32.9762 54.7286 38.0952H42.8571V23.8095ZM57.8833 23.8095H72.0667C74.3476 28.1238 75.769 32.9643 76.1071 38.0952H59.4857C59.3524 33.0143 58.7881 28.1976 57.8833 23.8095ZM4.85 42.8571H21.4667C21.6 47.9381 22.1643 52.7548 23.069 57.1429H8.89048C6.60714 52.8286 5.1881 47.9881 4.85 42.8571ZM26.2238 42.8571H38.0952V57.1429H27.9167C26.9548 52.8095 26.3643 47.9762 26.2238 42.8571ZM63.9929 52.3857C63.1024 52.4048 62.2952 52.7 61.5929 53.2738C60.65 54.0429 59.619 56.1833 58.9619 58.9476C57.7571 63.9833 57.1524 71.2333 57.1524 71.2333C57.1405 71.369 57.1452 71.5048 57.1571 71.6381C54.731 72.5024 52.6976 73.5357 51.2048 74.6881C48.8119 76.5357 47.619 78.7286 47.619 80.9524C47.619 82.2667 48.6857 83.3333 50 83.3333H97.619C98.9333 83.3333 100 82.2667 100 80.9524C100 78.7286 98.8071 76.5357 96.4143 74.6881C94.9214 73.5357 92.8881 72.5024 90.4619 71.6381C90.4738 71.5048 90.4786 71.369 90.4667 71.2333C90.4667 71.2333 89.8619 63.9833 88.6571 58.9476C88 56.1833 86.969 54.0429 86.0262 53.2738C84.6214 52.1286 82.7905 52.0857 80.7286 53.1619C79.4333 53.8381 77.9571 55.0214 76.4786 56.05C75.5357 56.7071 74.6595 57.3976 73.8095 57.3976C72.9595 57.3976 72.0833 56.7071 71.1405 56.05C69.6619 55.0214 68.1857 53.8381 66.8905 53.1619C65.8595 52.6238 64.8833 52.3667 63.9929 52.3857ZM64.5095 57.3095C64.6333 57.3643 64.769 57.4286 64.8714 57.4881C65.4214 57.8 66.0071 58.2143 66.6071 58.65C67.8643 59.5619 69.1833 60.5619 70.4524 61.2214C71.6095 61.8238 72.7524 62.1595 73.8095 62.1595C74.8667 62.1595 76.0095 61.8238 77.1667 61.2214C78.4357 60.5619 79.7548 59.5619 81.0119 58.65C81.6119 58.2143 82.1976 57.8 82.7476 57.4881C82.85 57.4286 82.9857 57.3643 83.1095 57.3095C83.3571 57.9167 83.7952 59.069 84.0309 60.0548C84.8524 63.5048 85.369 68.031 85.5929 70.2571C82.0714 69.4905 78.0643 69.0476 73.8095 69.0476C69.5548 69.0476 65.5476 69.4905 62.0262 70.2571C62.25 68.031 62.7667 63.5048 63.5881 60.0548C63.8238 59.069 64.2619 57.9167 64.5095 57.3095ZM11.9095 61.9048H24.2381C25.4024 65.9905 26.881 69.5667 28.5952 72.4381C29.0643 73.2262 29.5571 73.9571 30.0643 74.6429C22.7381 72.4095 16.4048 67.8857 11.9095 61.9048ZM29.1857 61.9048H38.0952V75.6452C36.0952 74.731 34.3024 72.7071 32.6833 69.9952C31.3357 67.7381 30.1571 65 29.1857 61.9048ZM73.8095 73.8095C81.2214 73.8095 87.8095 75.1952 91.8857 77.419C92.5524 77.7857 93.1452 78.1667 93.6476 78.5714H53.9714C54.4738 78.1667 55.0667 77.7857 55.7333 77.419C59.8095 75.1952 66.3976 73.8095 73.8095 73.8095ZM61.9048 85.7143C58.8714 85.7143 56.2071 86.7667 54.5381 88.2809C53.1405 89.5548 52.381 91.1595 52.381 92.8571C52.381 94.5548 53.1405 96.1595 54.5381 97.4333C56.2071 98.9476 58.8714 100 61.9048 100C64.9381 100 67.6024 98.9476 69.2714 97.4333C69.9881 96.7786 70.5381 96.0357 70.9024 95.2381H76.7167C77.081 96.0357 77.6309 96.7786 78.3476 97.4333C80.0167 98.9476 82.681 100 85.7143 100C88.7476 100 91.4119 98.9476 93.081 97.4333C94.4786 96.1595 95.2381 94.5548 95.2381 92.8571C95.2381 91.1595 94.4786 89.5548 93.081 88.2809C91.4119 86.7667 88.7476 85.7143 85.7143 85.7143C82.681 85.7143 80.0167 86.7667 78.3476 88.2809C77.6309 88.9357 77.081 89.6786 76.7167 90.4762H70.9024C70.5381 89.6786 69.9881 88.9357 69.2714 88.2809C67.6024 86.7667 64.9381 85.7143 61.9048 85.7143ZM61.9048 90.4762C63.3571 90.4762 64.681 90.8357 65.6333 91.4714C66.1976 91.8476 66.6667 92.2833 66.6667 92.8571C66.6667 93.431 66.1976 93.8667 65.6333 94.2429C64.681 94.8786 63.3571 95.2381 61.9048 95.2381C60.4524 95.2381 59.1286 94.8786 58.1762 94.2429C57.6119 93.8667 57.1429 93.431 57.1429 92.8571C57.1429 92.2833 57.6119 91.8476 58.1762 91.4714C59.1286 90.8357 60.4524 90.4762 61.9048 90.4762ZM85.7143 90.4762C87.1667 90.4762 88.4905 90.8357 89.4429 91.4714C90.0071 91.8476 90.4762 92.2833 90.4762 92.8571C90.4762 93.431 90.0071 93.8667 89.4429 94.2429C88.4905 94.8786 87.1667 95.2381 85.7143 95.2381C84.2619 95.2381 82.9381 94.8786 81.9857 94.2429C81.4214 93.8667 80.9524 93.431 80.9524 92.8571C80.9524 92.2833 81.4214 91.8476 81.9857 91.4714C82.9381 90.8357 84.2619 90.4762 85.7143 90.4762Z" fill="black"/>
</svg>
