<svg width="100" height="100" viewBox="0 0 100 100" fill="none" xmlns="http://www.w3.org/2000/svg">
<path d="M92.4932 7.51657C87.6801 2.70378 81.1523 0 74.3458 0C67.5392 0 61.0114 2.70378 56.1983 7.51657L7.28795 56.4208C2.57563 61.2543 -0.0425776 67.7496 0.000523841 74.4999C0.0436252 81.2501 2.74456 87.7115 7.51822 92.4844C12.2919 97.2573 18.7538 99.9573 25.5042 99.9995C32.2546 100.042 38.7498 97.4227 43.5828 92.7099L92.498 43.8056C97.3029 38.9892 100.001 32.4634 100 25.6601C99.9991 18.8568 97.2994 12.3318 92.4932 7.51657ZM38.1328 87.26C34.7659 90.6275 30.1991 92.5196 25.4371 92.52C20.6751 92.5205 16.1079 90.6293 12.7404 87.2624C9.3728 83.8956 7.48067 79.3289 7.48022 74.567C7.47977 69.8052 9.37103 65.2381 12.738 61.8707L34.4657 40.1435L59.8606 65.5328L38.1328 87.26ZM87.0432 38.3558L65.3058 60.083L39.9206 34.6936L61.6532 12.9664C65.0334 9.66433 69.5793 7.82794 74.3047 7.85555C79.0302 7.88316 83.5542 9.77254 86.8957 13.1139C90.2372 16.4553 92.1266 20.9792 92.1542 25.7045C92.1818 30.4299 90.3454 34.9756 87.0432 38.3558ZM79.6078 28.1114C79.9663 28.4694 80.2506 28.8945 80.4446 29.3625C80.6386 29.8305 80.7385 30.3321 80.7385 30.8387C80.7385 31.3453 80.6386 31.8469 80.4446 32.3149C80.2506 32.7829 79.9663 33.208 79.6078 33.5661L68.0428 45.1308C67.6846 45.4886 67.2595 45.7724 66.7917 45.9659C66.3238 46.1595 65.8224 46.259 65.3161 46.2588C64.8098 46.2585 64.3085 46.1586 63.8408 45.9646C63.3731 45.7707 62.9483 45.4865 62.5904 45.1283C62.2325 44.7702 61.9487 44.3451 61.7552 43.8772C61.5616 43.4094 61.4622 42.908 61.4624 42.4017C61.4626 41.8954 61.5625 41.3941 61.7565 40.9265C61.9505 40.4588 62.2346 40.0339 62.5928 39.6761L74.1578 28.1114C74.8807 27.389 75.8609 26.9832 76.8828 26.9832C77.9048 26.9832 78.885 27.389 79.6078 28.1114Z" fill="black"/>
</svg>
