<svg width="114" height="101" viewBox="0 0 114 101" fill="none" xmlns="http://www.w3.org/2000/svg">
<path fill-rule="evenodd" clip-rule="evenodd" d="M12.086 67.0468C27.5197 65.6469 42.5441 65.6273 57.1384 67.0468C57.7466 70.6354 58.3618 74.4399 57.1384 77.8128C53.7964 87.022 42.5245 91.0661 38.2871 100.364C23.2332 93.0334 10.2195 84.4843 12.086 67.0468ZM69.7163 44.9487C81.4982 43.8781 92.9677 43.8641 104.111 44.9487C104.574 47.6881 105.044 50.593 104.111 53.1671C101.559 60.1973 92.9537 63.2858 89.7181 70.3832C78.2262 64.7879 68.2912 58.2608 69.7163 44.9487ZM19.7846 57.165H32.8515C32.8515 60.7677 29.9243 63.6977 26.3188 63.6977C22.7147 63.6977 19.7846 60.7677 19.7846 57.165ZM37.1156 57.165H50.1839C50.1839 60.7677 47.2538 63.6977 43.6483 63.6977C40.0443 63.6977 37.1156 60.7677 37.1156 57.165ZM0.218598 54.2251L0 51.239L10.2826 50.4837C10.319 49.7971 10.3877 49.1146 10.4829 48.442C12.0019 37.7643 20.7879 29.2011 31.9799 28.3772L33.1836 28.2889C46.0936 27.3388 57.3416 37.0455 58.2917 49.9526L0.218598 54.2251ZM75.4139 37.4042H85.3896C85.3896 40.1549 83.1545 42.3927 80.4024 42.3927C77.6503 42.3927 75.4139 40.1549 75.4139 37.4042ZM88.6461 37.4042H98.6204C98.6204 40.1549 96.3826 42.3927 93.6333 42.3927C90.8798 42.3927 88.6461 40.1549 88.6461 37.4042ZM113.558 35.1593L69.223 31.8972C69.9475 22.0448 78.5359 14.6334 88.3911 15.3593L89.3117 15.4266C97.8553 16.0543 104.563 22.5927 105.723 30.7439C105.796 31.2568 105.848 31.7795 105.876 32.3021L113.726 32.8795L113.558 35.1593ZM40.1466 19.5197H49.0797C49.0797 21.9817 47.0773 23.9856 44.6138 23.9856C42.1504 23.9856 40.1466 21.9817 40.1466 19.5197ZM51.9944 19.5197H60.9261C60.9261 21.9817 58.9223 23.9856 56.4616 23.9856C53.9954 23.9856 51.9944 21.9817 51.9944 19.5197ZM26.2333 18.1352L26.0834 16.0936L33.1122 15.5779C33.1374 15.1085 33.1836 14.6418 33.2495 14.1822C34.2878 6.88298 40.2937 1.02985 47.9433 0.466542L48.7672 0.407688C57.5925 -0.243905 65.2813 6.39254 65.93 15.215L26.2333 18.1352Z" fill="black"/>
</svg>
