<svg width="157" height="100" viewBox="0 0 157 100" fill="none" xmlns="http://www.w3.org/2000/svg">
<path d="M35.0066 27.0269C40.5419 27.0269 45.0293 22.5485 45.0293 17.024C45.0293 11.4996 40.5419 7.02121 35.0066 7.02121C29.4712 7.02121 24.9839 11.4996 24.9839 17.024C24.9839 22.5485 29.4712 27.0269 35.0066 27.0269Z" fill="black"/>
<path d="M134.209 20.1406C139.745 20.1406 144.232 15.6621 144.232 10.1377C144.232 4.61332 139.745 0.134888 134.209 0.134888C128.674 0.134888 124.187 4.61332 124.187 10.1377C124.187 15.6621 128.674 20.1406 134.209 20.1406Z" fill="black"/>
<path d="M147.162 23.7824C144.608 22.8524 144.516 22.8098 144.153 22.6537C143.833 22.5117 143.328 22.2845 141.094 21.4042L139.992 20.9711L139.01 21.6385C136.585 23.2784 131.726 23.2571 129.379 21.6456L128.419 20.9782L120.992 23.8179C114.37 26.5298 106.581 29.7316 102.86 31.2153C103.138 30.9101 103.365 30.5764 103.529 30.1789C103.856 29.3411 103.842 28.4253 103.493 27.6515C102.981 26.395 101.765 25.5856 100.406 25.5856L99.517 25.6779L91.9342 28.8939C91.1162 29.2347 90.476 29.8807 90.1417 30.7042C89.7931 31.5348 89.8002 32.4577 90.1488 33.2741C90.6609 34.5236 91.8844 35.3258 93.2431 35.3258L94.1323 35.2406L99.3036 33.047C97.7601 34.41 97.3902 36.2061 97.6605 37.5976C98.2224 40.6289 101.63 42.347 105.03 41.0478L109.141 39.4292C112.591 38.0803 116.98 36.3481 118.702 35.695C120.217 35.1057 121.668 34.5378 122.877 34.0621C122.92 46.1309 123.069 87.4911 123.069 91.275C123.069 98.5801 131.997 98.5801 131.997 91.275V62.381C131.997 60.3436 133.135 59.6052 134.223 59.6052C135.29 59.6052 136.442 60.3436 136.442 62.381V91.275C136.442 94.924 138.69 96.8337 140.91 96.8337C143.129 96.8337 145.37 94.9169 145.37 91.2324C145.263 83.6646 145.348 44.7252 145.362 33.9912C146.494 34.5378 147.575 35.6524 147.575 37.9312V57.9298C147.575 65.2491 156.516 65.2491 156.516 57.9298V37.9312C156.495 33.2883 156.495 27.5166 147.162 23.7824Z" fill="black"/>
<path d="M78.6323 43.1279L90.2483 37.3349H75.4028L82.5162 23.1364L70.9925 31.7549L74.0086 19.7075L55.6349 41.1046L53.4724 35.1271C57.3207 33.5155 60.102 31.2935 63.0754 23.8251L69.6126 7.34772C70.3595 5.45932 70.2172 3.53543 69.2356 2.08718C68.3393 0.780918 66.8668 0 65.2877 0C63.1537 0 61.2615 1.41275 60.3652 3.69161L52.5832 23.25L52.2703 24.0807C51.7866 25.4153 51.7723 25.394 50.6342 25.4153L44.1753 25.2094L43.4782 26.1678C41.7212 28.6029 37.2682 30.2002 34.4371 29.4761L33.299 29.1708L32.4027 29.9446C31.037 31.1231 30.6671 31.4426 30.5675 31.5207L30.5746 31.5278C30.1193 31.8756 29.4293 32.4507 28.2841 33.4091C27.6226 33.4091 26.4346 32.7701 25.1613 32.0744L7.8475 22.7531C4.5967 20.9996 0.926222 22.4833 0.150869 25.5786C-0.439538 27.8859 0.734162 30.2144 3.12424 31.5065L17.671 39.344C23.1269 42.2973 28.1703 43.4119 32.4667 42.6097L40.1563 63.6732C36.2084 74.2226 30.916 87.5763 29.1448 92.0418L28.903 92.6665C28.149 94.5407 28.2841 96.4504 29.28 97.9199C30.1691 99.2262 31.6487 100 33.2279 100C35.3619 100 37.2469 98.5873 38.1503 96.3226L40.5688 90.2882C48.0307 71.7095 50.4919 65.5403 50.6555 64.9155C51.0752 63.3892 52.754 63.1123 53.7214 63.6519C54.7244 64.2482 79.3223 77.5735 83.5262 79.831C86.7913 81.6059 90.5542 80.1647 91.3509 77.0978C91.9342 74.8261 90.7249 72.4691 88.2495 71.0919L86.9406 70.3819C80.5884 66.9601 70.0607 61.2736 61.0908 56.1409L59.8602 52.7474L94.9431 46.3794L78.6323 43.1279ZM71.0281 46.1735L58.3166 48.4808L57.3563 45.8256C57.5057 45.7263 57.655 45.6482 57.776 45.492L65.0529 37.0297L63.5805 42.9008L70.0038 38.0946L68.1472 41.8004H71.2486L64.9249 44.9524L71.0281 46.1735Z" fill="black"/>
</svg>
