<svg width="83" height="100" viewBox="0 0 83 100" fill="none" xmlns="http://www.w3.org/2000/svg">
<g clip-path="url(#clip0_30_328)">
<path fill-rule="evenodd" clip-rule="evenodd" d="M66.173 57.8727L67.2453 60.6591C67.3888 61.0382 67.6964 61.2899 68.0919 61.3767C68.4904 61.4577 68.8713 61.3478 69.1584 61.0642L71.9475 58.3096C72.2316 58.0289 72.3459 57.6498 72.2639 57.2563C72.1818 56.8628 71.9182 56.5676 71.5373 56.4201L68.9504 55.4507L66.173 57.8727ZM62.2736 69.4208C63.6769 70.1616 64.6525 71.6141 64.6671 73.2953L64.8839 89.7331C64.9132 92.1839 62.9269 94.1919 60.4513 94.2209C57.9698 94.2498 55.9367 92.288 55.9073 89.843L55.7257 76.0497L45.9757 70.96L44.6866 70.2858C44.628 70.6185 44.5665 70.9513 44.5079 71.2782L42.6329 81.7382H42.6182C42.4014 82.9766 41.6514 84.1166 40.4649 84.7966L25.2362 93.6129C23.0975 94.8514 20.3465 94.1454 19.0926 92.0273C17.8387 89.915 18.5535 87.1981 20.6981 85.9596L34.1246 78.1907L36.3512 65.7833C36.2603 65.4361 36.1929 65.0802 36.1549 64.7156C35.7652 61.1971 35.6597 58.1444 35.9234 55.3756C37.649 51.125 39.8023 46.7615 45.5302 45.7549C48.2372 45.4597 50.9296 46.1831 53.2994 47.4302C53.3229 47.4447 53.3522 47.4591 53.3756 47.4678C54.3893 48.0002 55.3326 48.631 56.1969 49.311C56.3463 49.4296 56.4957 49.5483 56.6392 49.6727L58.2359 53.9406L59.5572 52.7861L59.9234 52.4678L60.4039 52.054L61.2505 51.3133L63.7993 49.0911C63.8902 49.0158 63.9781 48.9435 64.0777 48.877C64.3941 48.6542 64.7456 48.5066 65.106 48.4256C65.5103 48.3301 65.9322 48.3214 66.3364 48.3966C66.9663 48.5153 67.5669 48.8335 68.0239 49.3457C69.1196 50.5667 69.0054 52.436 67.7691 53.5152L63.3453 57.3665L59.0767 61.0846C58.7779 61.3885 58.4029 61.6315 57.9663 61.7878C56.4136 62.352 54.688 61.565 54.1197 60.0256L51.7203 53.602C51.6148 53.7958 51.5181 53.9955 51.4361 54.1952C50.6334 56.1569 50.5894 58.981 51.0523 63.1359C51.0669 63.2835 51.0816 63.4252 51.0904 63.5641L62.2736 69.4208ZM45.3986 60.6127C45.3078 60.5693 45.2257 60.523 45.1349 60.4854L45.3986 60.6127ZM38.3175 46.9608C39.9669 45.3318 42.1349 44.0876 45.1642 43.561L45.2316 43.5523C48.4572 43.1906 51.6154 44.0182 54.3606 45.462C55.6643 46.1507 56.8889 46.9725 57.9758 47.8781C58.6438 48.4336 59.259 49.0123 59.8274 49.6026L62.3235 47.4238C62.5549 47.2155 62.8098 47.039 63.0647 46.8827C62.0686 45.054 61.0022 43.3728 59.8684 41.8451C58.0608 39.4087 56.0891 37.3428 54.0178 35.624C48.7239 31.2461 42.7296 29.1049 36.8878 28.6246C32.7394 28.2832 28.6671 28.7722 24.9786 29.892C21.2959 31.0031 18.003 32.7363 15.3928 34.8833C10.7317 38.7317 8.29423 43.9026 9.89968 49.1544C10.7551 51.9553 13.8899 55.9021 17.6929 58.807C19.732 60.3695 21.9527 61.6137 24.0767 62.178C26.063 62.7104 27.9703 62.6438 29.5435 61.66C30.6685 60.9569 31.6646 59.7561 32.4527 57.9476C32.7896 57.1779 33.0914 56.4141 33.399 55.6357C34.606 52.5975 35.8947 49.3538 38.3175 46.9608ZM55.4415 33.9023C55.3829 33.4799 55.3449 33.0517 55.3449 32.6147C55.3449 27.7709 59.3205 23.8532 64.2159 23.8532C69.1202 23.8532 73.0868 27.7797 73.0868 32.6147C73.0868 37.4585 69.1113 41.3762 64.2159 41.3762C63.4893 41.3762 62.792 41.2865 62.1152 41.1331C60.0761 38.2714 57.8262 35.8728 55.4415 33.9023Z" fill="black"/>
<path d="M27.9059 46.8198C27.6959 46.9984 27.3831 46.9817 27.2032 46.7747C27.0232 46.5677 27.0411 46.2587 27.2512 46.0802C29.9611 43.7172 31.0086 41.1574 31.4123 39.4192C31.8487 37.5345 31.6401 36.1874 31.6381 36.1727L31.6351 36.1507L31.632 36.1287L30.7267 23.7511C30.7186 23.6924 30.6184 22.3079 30.6867 20.773C30.7828 18.5614 31.1763 17.2433 31.8785 16.7352C32.815 16.0601 33.2706 15.6308 33.6387 15.2809C33.7924 15.1326 33.9396 14.9927 34.0953 14.859C34.3192 14.6711 34.8846 13.9949 34.8222 13.1585C34.7493 12.3012 34.0443 11.4712 32.7249 10.6887C29.033 8.51364 28.6614 5.1626 28.4768 3.55047C28.463 3.39535 28.4448 3.26327 28.4296 3.1532C28.3506 2.58085 27.8323 2.06164 27.4156 1.73031C26.7774 1.22016 26.2259 0.735433 25.7434 0.256151C24.0493 -1.43183 23.3789 -1.24212 23.2577 -1.188C23.0226 -1.08079 22.8936 -0.644245 22.9476 -0.143218C22.9847 0.180674 23.2095 0.987138 24.3731 2.72589C25.2993 4.11604 25.6136 5.84487 25.2373 7.45213L25.2275 7.49088C24.9167 8.80495 25.0631 10.4149 25.4084 12.5881C25.6517 14.1323 25.601 15.4105 25.5404 16.8919C25.5072 17.7489 25.4643 18.6447 25.4797 19.6894C25.5244 22.592 23.8535 29.5225 23.7806 29.8167C23.7708 29.8555 23.4188 31.3098 22.8854 33.4248C22.8864 33.4321 22.88 33.4405 22.882 33.4552C22.0428 36.7564 20.7554 41.6375 19.6279 45.2627C18.9023 47.5761 19.0176 49.5642 19.9573 50.9974C20.582 51.958 21.382 52.3786 21.5195 52.4418C21.8835 52.5561 24.7681 53.4891 27.3288 55.1472C29.2029 56.3842 25.512 52.9545 28.9217 54.1814C29.767 54.491 30.695 53.9741 30.8768 53.0966L31.6147 48.2017C29.3254 48.1811 33.1278 47.0788 29.4504 45.2832C28.9985 45.7942 28.4872 46.3134 27.9059 46.8198Z" fill="black"/>
<path d="M25.7373 34.125C24.8598 32.4658 19.2273 21.8139 18.2973 19.3102C17.5248 17.251 18.0273 16.3547 18.6048 15.3028C18.8448 14.8732 19.0923 14.4213 19.2873 13.8213C19.5123 13.1325 19.3248 12.5028 18.7173 11.9028C18.2973 11.4806 17.8023 11.2213 17.6523 11.1473C17.1423 11.0362 13.9398 10.2436 11.6223 7.71764C10.4373 6.42876 8.7798 5.42875 7.5948 4.81394C5.9448 3.96209 4.0698 3.73246 2.3148 4.1695C1.2723 4.42876 1.0173 4.73986 0.9573 4.86579C0.9423 4.90283 0.889798 5.00653 0.972298 5.19913C1.0623 5.39913 1.2648 5.54727 1.5048 5.59172C3.4398 5.93246 4.7898 6.94727 5.5923 7.74727C6.6123 8.76949 7.1673 9.84357 7.3398 10.5102C7.6323 11.6362 8.5323 13.1176 8.6973 13.3769C11.3823 16.1473 12.9573 20.1028 14.4873 23.9176C16.0548 27.8436 19.0848 41.851 19.3473 45.1473C19.4523 46.4658 19.7748 47.3547 20.0823 47.925C20.2173 47.0954 20.4948 46.1621 20.9898 45.125C22.5723 41.7843 24.4623 37.2584 25.7373 34.125Z" fill="black"/>
</g>
<defs>
<clipPath id="clip0_30_328">
<rect width="82.5" height="100" fill="white"/>
</clipPath>
</defs>
</svg>
