<svg width="76" height="101" viewBox="0 0 76 101" fill="none" xmlns="http://www.w3.org/2000/svg">
<path d="M30.633 77.6633L30.0391 78.209L29.4947 77.6166L21.9238 69.3866V95.5456C21.9238 98.2959 24.1535 100.524 26.9022 100.524C29.6517 100.524 31.8813 98.2959 31.8813 95.5456V78.1401L31.0711 77.2598L30.633 77.6633Z" fill="black"/>
<path d="M36.0143 81.4417L35.4204 81.9869L34.876 81.3946L33.748 80.1688V95.5456C33.748 98.2959 35.9777 100.524 38.7264 100.524C41.4759 100.524 43.7056 98.2959 43.7056 95.5456V86.391L37.7141 79.8773L36.0143 81.4417Z" fill="black"/>
<path d="M23.9932 12.0218C22.8592 16.893 25.8894 21.763 30.7619 22.897C35.6343 24.0317 40.5039 21.0016 41.6383 16.1291C42.0937 14.1741 41.8771 12.2199 41.1414 10.5065H24.4913C24.2855 10.9885 24.1164 11.4934 23.9932 12.0218Z" fill="black"/>
<path d="M47.4631 9.70151V8.34246H41.3866L40.9139 2.67109C40.9139 2.67109 38.0959 0.523987 32.8155 0.523987C27.536 0.523987 24.7172 2.67109 24.7172 2.67109L24.2452 8.34246H18.168V9.70151H47.4631Z" fill="black"/>
<path d="M57.3509 81.8911C57.7528 81.9217 58.143 81.9233 58.5267 81.9076C57.9509 81.1755 57.3251 80.4736 56.6414 79.802C56.3277 80.1008 56.0776 80.3887 55.9302 80.6182C55.3475 81.5299 56.618 81.8367 57.3509 81.8911Z" fill="black"/>
<path d="M64.5699 82.7718C63.8753 82.5004 62.842 82.812 61.8989 83.1523C62.1804 83.6383 62.4542 84.1324 62.7168 84.6394C63.6329 83.9387 64.8764 82.8914 64.5699 82.7718Z" fill="black"/>
<path d="M53.663 57.954C53.6256 58.9462 53.5793 59.9578 53.5197 60.9891C53.4073 62.8982 51.9742 64.4316 50.144 64.7271C51.2723 65.791 51.7302 66.8742 51.7302 66.8742C49.5996 70.3804 46.9028 70.7863 45.9102 73.6647C45.0601 76.1279 44.6264 78.4606 44.5161 80.6423L56.9562 94.1668L57.5014 94.7608L56.9091 95.3052L54.7926 97.2526L54.1986 97.7982L53.6542 97.2059L45.576 88.4238C47.4376 93.8664 51.3448 97.5296 54.6182 98.707C61.5415 101.2 65.3537 100.961 74.5973 92.0463C78.5149 88.2695 71.5598 73.7943 67.1577 70.2668C63.9056 67.6611 56.9143 66.8465 55.97 66.5859C53.7472 65.9702 56.6558 63.0359 57.8771 59.8309C58.8774 57.2143 55.308 57.2042 53.663 57.954ZM46.596 79.5394C44.9405 72.0487 53.3087 68.7133 53.3087 68.7133C48.6517 71.6855 48.2695 74.1668 46.596 79.5394ZM57.3762 77.3931C58.6047 76.5612 60.9053 75.1856 62.158 76.4408C62.8345 77.1189 61.4598 79.0284 60.869 78.4369C60.2924 77.8594 59.3715 78.0285 58.4702 78.4864C59.3779 79.4544 60.18 80.4793 60.9069 81.5633C61.4022 81.4477 61.8995 81.3124 62.4085 81.1622C63.1901 80.9319 65.0779 80.1414 65.8587 80.776C66.7087 81.4658 66.174 82.7085 65.7322 83.4901C65.1564 84.5069 64.3667 85.3896 63.4426 86.1176C63.7893 86.8545 64.1251 87.6103 64.4533 88.3891C64.8089 89.2315 63.5638 91.2143 63.0942 90.1005C62.6702 89.0938 62.2353 88.125 61.7771 87.1904C60.2215 87.9965 58.4622 88.4314 56.7427 88.4069C55.8013 88.3936 56.8096 86.2779 57.689 86.2904C58.7823 86.3061 59.9328 86.0552 60.979 85.6453C60.6314 85.0122 60.265 84.3969 59.8792 83.7994C58.1247 84.1634 54.2175 84.612 54.05 82.4302C53.9485 81.0986 54.6746 79.8547 55.6221 78.8556C55.1062 78.4091 54.5594 77.9762 53.9767 77.5578C53.2044 77.0041 54.1559 74.8498 55.0732 75.5073C55.9088 76.1069 56.6707 76.7363 57.3762 77.3931Z" fill="black"/>
<path d="M46.0179 62.7786C45.633 62.1178 45.4292 61.3422 45.4763 60.5227C45.4836 60.4019 45.488 60.2852 45.4948 60.1652C43.659 61.1614 42.3829 62.6799 44.8747 62.6956C45.2774 62.698 45.6567 62.729 46.0179 62.7786Z" fill="black"/>
<path d="M18.8218 62.5233L21.7509 65.7081L20.604 66.7628L30.0868 77.0714L31.1188 76.1223L35.469 80.8498L37.7623 78.7397L54.2461 96.6607L56.3634 94.7133L22.34 57.7254L19.2285 58.1538C19.2168 57.8804 19.2071 57.6118 19.1979 57.3444C19.1459 55.8988 19.1189 54.522 19.1193 53.2298C19.1044 43.4765 20.5271 37.9984 21.924 35.1402V48.4564V56.0828V56.9687L22.2301 56.9269L22.6476 56.8693L22.9331 57.1793L31.8819 66.9077V59.1952H33.7484V68.9368L43.7059 79.7625V63.2933C42.9573 62.9989 42.8147 62.4545 42.8164 62.0856C42.818 61.5629 43.1679 61.0205 43.7059 60.52V56.0828V48.4564V45.2088V35.1611C43.9443 35.6504 44.1851 36.2121 44.4222 36.8669C45.557 40.0122 46.5118 45.1738 46.5089 53.2306C46.5089 55.4502 46.4373 57.8897 46.281 60.5695C46.1779 62.3453 47.5338 63.8687 49.3104 63.9726C49.374 63.9766 49.4377 63.9782 49.5009 63.9782C51.1941 63.9782 52.6144 62.6562 52.7139 60.9432C52.8757 58.1526 52.9515 55.5887 52.9531 53.231C52.9358 41.0769 50.9948 34.3505 48.3472 30.306C47.0244 28.2982 45.4773 27.01 44.0474 26.2973C42.671 25.6038 41.4621 25.4472 40.7361 25.4379C40.689 25.4359 40.6419 25.4307 40.594 25.4307H35.8713H25.0363C24.9888 25.4307 24.9425 25.4355 24.8954 25.4379C24.1694 25.4468 22.9589 25.6022 21.5805 26.2977C19.4145 27.3712 17.0793 29.7209 15.4461 33.8846C13.8212 37.9899 12.7231 43.9017 12.68 52.7607C12.6792 52.919 12.676 53.0708 12.676 53.2306C12.676 53.405 12.6796 53.5882 12.6805 53.7646L5.26587 48.2483L0 54.9513L12.852 59.7058C12.8669 59.9965 12.881 60.2856 12.8975 60.5812C12.9047 60.704 12.9092 60.8212 12.9164 60.9444C13.0171 62.6566 14.4365 63.9778 16.1302 63.9778C16.1938 63.9778 16.2575 63.9754 16.3215 63.9722C17.0854 63.9271 17.7712 63.6178 18.2963 63.1406C18.4972 62.9582 18.6724 62.75 18.8218 62.5233ZM32.8145 54.6988L28.9891 49.8666L31.1925 33.6297C31.7152 33.8254 32.2641 33.9277 32.8137 33.9273H32.8145C32.8145 33.9273 32.8162 33.9273 32.817 33.9273C33.3658 33.9273 33.9147 33.825 34.4361 33.6293L36.6404 49.8666L32.8145 54.6988ZM31.2839 28.7254H32.8145H34.3443L35.1094 31.7455L34.9931 31.9292C34.3625 32.4551 33.5901 32.7184 32.8137 32.7192C32.0374 32.7184 31.2662 32.4555 30.636 31.9312L30.5189 31.7455L31.2839 28.7254Z" fill="black"/>
</svg>
