<svg width="122" height="100" viewBox="0 0 122 100" fill="none" xmlns="http://www.w3.org/2000/svg">
<path d="M108.988 25.2599C115.903 25.2599 121.53 19.6279 121.53 12.705C121.53 5.78118 115.903 0.1492 108.988 0.1492C102.073 0.1492 96.4473 5.78118 96.4473 12.705C96.4473 19.6279 102.073 25.2599 108.988 25.2599Z" fill="black"/>
<path d="M24.8902 28.6969C31.8163 28.6969 37.4309 23.0759 37.4309 16.1421C37.4309 9.20824 31.8163 3.58725 24.8902 3.58725C17.9642 3.58725 12.3496 9.20824 12.3496 16.1421C12.3496 23.0759 17.9642 28.6969 24.8902 28.6969Z" fill="black"/>
<path d="M78.8953 43.0787H82.6891C83.0636 43.0787 83.3686 42.7734 83.3686 42.3984V40.5387H78.2158V42.3984C78.2168 42.7743 78.5208 43.0787 78.8953 43.0787Z" fill="black"/>
<path d="M68.3379 32.7486C68.3379 35.3334 69.1654 36.4303 71.6787 36.7336C71.4264 36.0763 71.2823 35.3652 71.2823 34.6193C71.2823 31.3543 73.9347 28.6979 77.196 28.6979H83.2359C83.1971 28.1589 83.2041 27.592 83.3432 27.1504C81.5223 27.3225 80.506 26.497 79.9338 25.59L65.8018 25.6527H65.7978C65.7511 25.6527 65.7114 25.6328 65.6667 25.6268C65.5971 25.6169 65.5286 25.6099 65.463 25.5861C65.4034 25.5642 65.3528 25.5314 65.2991 25.4995C65.2435 25.4667 65.1898 25.4369 65.1412 25.3931C65.0895 25.3464 65.0508 25.2907 65.009 25.234C64.9822 25.1972 64.9445 25.1713 64.9226 25.1296L64.106 23.6109H60.7861L59.8255 25.2042C59.7897 25.2638 59.744 25.3136 59.6983 25.3623C59.6884 25.3722 59.6825 25.3842 59.6725 25.3941C59.5911 25.4747 59.4957 25.5363 59.3944 25.5831C59.3705 25.594 59.3467 25.603 59.3218 25.6119C59.2146 25.6527 59.1023 25.6795 58.9881 25.6815C58.9851 25.6815 58.9831 25.6835 58.9801 25.6835L56.2344 25.6954V31.7561H67.3445C67.8929 31.7541 68.3379 32.1986 68.3379 32.7486Z" fill="black"/>
<path d="M101.338 40.5397H85.3555V42.1319H102.181V41.384C102.181 40.9186 101.802 40.5397 101.338 40.5397Z" fill="black"/>
<path d="M109.347 30.686H77.1955C75.0298 30.686 73.2686 32.4493 73.2686 34.6183C73.2686 36.7864 75.0298 38.5497 77.1955 38.5497H101.339C102.9 38.5497 104.169 39.8207 104.169 41.3831V97.8629C104.169 99.0424 105.127 100 106.304 100C107.481 100 108.439 99.0415 108.439 97.8629V74.8308C108.439 73.2585 109.716 71.9795 111.287 71.9795C112.857 71.9795 114.135 73.2585 114.135 74.8308V96.6128C114.135 98.4805 115.653 100 117.518 100C119.384 100 120.902 98.4805 120.902 96.6128V42.2543C120.902 35.8754 115.718 30.686 109.347 30.686Z" fill="black"/>
<path d="M77.1794 57.2218C76.788 57.2218 75.9555 57.6117 74.7853 58.7046C73.9528 59.4814 72.728 59.6275 71.7356 59.0666C71.1375 58.7295 69.6872 58.0204 69.1329 58.7464C68.5915 59.4535 69.7468 61.8543 71.219 63.8264C72.3396 63.3898 73.5982 63.1143 75.0277 63.1143C76.4155 63.1143 77.7526 63.6693 78.9903 64.5136C81.144 62.277 83.107 59.4843 82.7513 58.6062C82.651 58.3595 82.5427 58.3138 82.496 58.2949C82.3967 58.2521 82.0003 58.1497 81.0953 58.5366C80.0155 58.995 78.742 58.6549 77.9999 57.7051C77.6602 57.2725 77.3691 57.2218 77.1794 57.2218Z" fill="black"/>
<path d="M75.0267 65.1044C68.7355 65.1044 66.2252 71.2853 65.8457 72.3296V95.8003C67.1331 96.3572 70.6498 97.6759 75.128 97.6759C80.091 97.6759 86.4478 96.4 88.5498 90.3225C89.8005 86.7074 86.5888 76.9173 82.0659 70.5573C79.5655 67.0407 77.0651 65.1044 75.0267 65.1044ZM79.5784 85.0903C79.5784 87.2563 78.0555 89.0664 76.028 89.5219V91.6591C76.028 92.2091 75.583 92.6536 75.0346 92.6536C74.4863 92.6536 74.0412 92.2091 74.0412 91.6591V89.5219C72.0137 89.0664 70.4918 87.2553 70.4918 85.0903C70.4918 84.5403 70.9369 84.0958 71.4852 84.0958C72.0336 84.0958 72.4786 84.5403 72.4786 85.0903C72.4786 86.1484 73.1243 87.0594 74.0412 87.4493V82.414C72.0137 81.9585 70.4918 80.1485 70.4918 77.9834C70.4918 75.8174 72.0137 74.0073 74.0412 73.5518V71.0715C74.0412 70.5215 74.4863 70.077 75.0346 70.077C75.583 70.077 76.028 70.5215 76.028 71.0715V73.5518C78.0555 74.0073 79.5784 75.8174 79.5784 77.9834C79.5784 78.5334 79.1334 78.978 78.585 78.978C78.0367 78.978 77.5916 78.5334 77.5916 77.9834C77.5916 76.9243 76.9459 76.0143 76.028 75.6244V80.6597C78.0565 81.1142 79.5784 82.9242 79.5784 85.0903Z" fill="black"/>
<path d="M72.4785 77.9824C72.4785 79.0406 73.1242 79.9516 74.0411 80.3404V75.6234C73.1242 76.0133 72.4785 76.9242 72.4785 77.9824Z" fill="black"/>
<path d="M63.8605 50.2343H0V98.8365H63.8605V50.2343Z" fill="black"/>
<path d="M2.62666 31.3284L8.94169 40.6869C9.88442 42.0822 10.3821 43.7122 10.3821 45.3969V48.2443H39.3953V45.3969C39.3953 43.7122 39.8929 42.0822 40.8357 40.6869L47.1507 31.3284C48.0159 30.0455 48.5107 28.5497 48.5802 27.0033L49.669 2.9985C49.7395 1.44705 48.5375 0.105436 46.9908 0.00598413C45.4391 -0.093468 44.0682 1.09101 43.949 2.65042L42.4132 22.8521C42.2234 25.3444 41.1426 27.6855 39.3694 29.4458L34.325 34.4473C34.1392 34.6322 33.8879 34.7357 33.6256 34.7357H16.1528C15.8905 34.7357 15.6392 34.6322 15.4534 34.4473L10.4099 29.4458C8.63572 27.6855 7.55391 25.3444 7.36517 22.8521L5.82937 2.65042C5.71116 1.092 4.34524 -0.091479 2.78859 0.00598413C1.24088 0.104442 0.0388661 1.44705 0.109397 2.9985L1.19717 27.0053C1.2667 28.5497 1.76042 30.0445 2.62666 31.3284Z" fill="black"/>
<path d="M76.0303 87.4483C76.9482 87.0595 77.5939 86.1485 77.5939 85.0893C77.5939 84.0301 76.9482 83.1202 76.0303 82.7313V87.4483Z" fill="black"/>
</svg>
