<svg width="67" height="101" viewBox="0 0 67 101" fill="none" xmlns="http://www.w3.org/2000/svg">
<path fill-rule="evenodd" clip-rule="evenodd" d="M54.0938 0.337055C49.6338 0.306774 45.3829 2.89076 43.4983 7.2469C42.0261 10.6485 42.3793 14.3586 44.0621 17.3622C48.2365 18.4754 52.8335 20.1567 57.8803 22.5071C60.7484 21.4703 63.2127 19.3305 64.5191 16.3125C67.0122 10.5144 64.3533 3.77756 58.5335 1.26712C57.0844 0.645634 55.5747 0.345707 54.0938 0.337055Z" fill="black"/>
<path d="M47.3668 33.3679C44.9876 33.3968 42.9573 33.6909 41.2832 34.2158C36.8535 35.613 34.5392 38.3081 33.3236 43.2064C32.7973 48.0283 30.2897 52.2085 26.6459 55.0333L25.9927 57.4212C24.9949 61.101 27.8918 64.7881 30.829 64.7881H52.1281V80.7476C52.1281 88.5126 63.7777 88.5126 63.7777 80.7476V58.9626C63.7777 55.7485 61.1706 53.1501 57.9637 53.1501H42.5391L44.4915 46.1061L45.4533 48.3642C46.8347 51.6332 51.1015 52.4363 53.5888 49.897L64.2968 38.9324C65.4157 37.7846 65.8454 36.5056 65.7834 35.2915C64.7625 35.7572 63.5614 35.8986 62.3429 35.5828C59.7532 34.9065 57.3711 34.4047 55.1721 34.0442L51.6869 37.6188L49.9162 33.4357C49.0207 33.3809 48.17 33.3607 47.3668 33.3679Z" fill="black"/>
<path d="M32.0989 67.0145L35.884 77.235L26.7593 90.9855C21.9663 97.5435 32.2705 104.378 36.455 97.4152L47.2163 81.2062C48.2444 79.6618 48.4708 77.7152 47.8335 75.9733L44.5054 67.0145H32.0989Z" fill="black"/>
<path d="M21.4935 27.6751C21.668 27.6895 21.8482 27.727 22.0415 27.8092C22.8605 28.1639 23.1085 28.9512 22.7177 29.5972L21.704 31.3622C21.8237 31.4574 21.9521 31.541 22.0717 31.6463C23.0638 32.5013 23.8958 33.6289 24.438 35.0262C25.1359 36.7248 22.5519 37.7299 21.9362 35.9952C21.1691 34.0125 19.6305 32.9065 18.1741 32.5633C16.725 32.2086 15.583 32.6066 15.1403 33.3953C14.8086 33.9808 14.8173 34.2374 15.0855 34.8214C15.3638 35.4083 16.0631 36.2418 17.1662 37.2035C18.513 38.3744 19.4272 39.5237 19.8482 40.8156C20.2693 42.112 20.0429 43.5179 19.3681 44.6815C18.34 46.4695 16.1093 46.9814 13.9982 46.4782C13.7113 46.4119 13.42 46.3124 13.1273 46.2071L12.1122 47.9562C11.2412 49.564 8.84614 48.184 9.79927 46.6209L10.7683 44.9454C9.76178 44.2172 8.79279 43.2482 7.95069 42.0471C6.83173 40.5691 9.13165 38.9526 10.1367 40.5071C11.5354 42.5071 13.2455 43.564 14.6125 43.8711C15.9708 44.1884 17.6839 43.564 17.3018 41.6491C17.1806 41.0262 16.5418 40.2071 15.4085 39.2165C14.177 38.1408 13.2167 37.1358 12.6616 35.9404C12.1107 34.7551 12.1266 33.2973 12.8115 32.0947C13.9752 30.014 16.5116 29.3997 18.8043 29.9548C18.9845 29.9938 19.1561 30.0601 19.3291 30.112L20.4048 28.2562C20.6067 27.8929 20.9917 27.6376 21.4935 27.6751ZM29.3334 17.8583C22.6658 18.0313 17.694 19.7963 13.743 21.4026C4.34725 25.2166 -0.0752249 33.1949 0.0372475 41.4241C0.14251 49.6635 7.04514 56.3844 15.5599 56.3844C23.5209 56.3844 30.1755 50.4811 30.9196 42.7608C33.6146 31.6318 43.205 28.0875 62.9583 33.2382C65.6533 33.9433 67.8091 30.4682 64.8718 28.8143C49.2886 20.053 37.9102 17.6406 29.3334 17.8583Z" fill="black"/>
</svg>
